HIERARCHY
ROOT ui
{
	 OFFSET 0 0 0
	 CHANNELS 3 XPosition YPosition Z Position
	 EndSite
	 {
	 OFFSET 0 -1 0
	 }
}
ROOT li
{
	 OFFSET 0 0 0
	 CHANNELS 3 XPosition YPosition Z Position
	 EndSite
	 {
	 OFFSET 0 -1 0
	 }
}
ROOT ul
{
	 OFFSET 0 0 0
	 CHANNELS 3 XPosition YPosition Z Position
	 EndSite
	 {
	 OFFSET 0 -1 0
	 }
}
ROOT ll
{
	 OFFSET 0 0 0
	 CHANNELS 3 XPosition YPosition Z Position
	 EndSite
	 {
	 OFFSET 0 -1 0
	 }
}
ROOT tt
{
	 OFFSET 0 0 0
	 CHANNELS 3 XPosition YPosition Z Position
	 EndSite
	 {
	 OFFSET 0 -1 0
	 }
}
ROOT tb
{
	 OFFSET 0 0 0
	 CHANNELS 3 XPosition YPosition Z Position
	 EndSite
	 {
	 OFFSET 0 -1 0
	 }
}
ROOT td
{
	 OFFSET 0 0 0
	 CHANNELS 3 XPosition YPosition Z Position
	 EndSite
	 {
	 OFFSET 0 -1 0
	 }
}
ROOT v
{
	 OFFSET 0 0 0
	 CHANNELS 3 XPosition YPosition Z Position
	 EndSite
	 {
	 OFFSET 0 -1 0
	 }
}
ROOT bn
{
	 OFFSET 0 0 0
	 CHANNELS 3 XPosition YPosition Z Position
	 EndSite
	 {
	 OFFSET 0 -1 0
	 }
}
MOTION
Frames: 29
Frame Time: 0.002
0.0018313380479812623	-1.0824500024318694E-4	0		0.5853651733398437	-2.527607177734375	0		-0.9471113891601562	0.10222288513183594	0		-0.6931043090820312	-2.6557041015625	0		1.4583763427734375	-0.8770082397460938	0		3.3298466796875	-0.4763472595214844	0		4.89801611328125	-0.37740402221679686	0		5.71685400390625	0.154718017578125	0		-0.16501382446289062	5.89705615234375	0		
0.047626296997070314	-0.004520369052886963	0		0.5433055419921875	-2.518062744140625	0		-0.955313232421875	0.0983988037109375	0		-0.7352619018554688	-2.65515869140625	0		1.454075927734375	-0.88987646484375	0		3.303591064453125	-0.4849772644042969	0		4.89691162109375	-0.37230767822265626	0		5.69963134765625	0.14898870849609375	0		-0.06615382385253907	5.89806689453125	0		
-0.009441484451293945	-0.003817903995513916	0		0.573069091796875	-2.53230859375	0		-0.9593836669921875	0.09852877807617187	0		-0.7043901977539062	-2.659410400390625	0		1.4410343017578124	-0.886659423828125	0		3.30137646484375	-0.49788717651367187	0		4.8877412109375	-0.381148681640625	0		5.69556103515625	0.14908918762207032	0		-0.19031121826171876	5.8885	0		
0.03961988830566406	-0.004278078079223633	0		0.5172024536132812	-2.52363037109375	0		-0.954231689453125	0.10655551147460937	0		-0.76835546875	-2.659633544921875	0		1.4491014404296876	-0.8856852416992187	0		3.289666015625	-0.47671209716796875	0		4.870966796875	-0.36593218994140625	0		5.6957138671875	0.1571140594482422	0		-0.17808883666992187	5.89844384765625	0		
0.03889495849609375	-0.0012047029733657838	0		0.5424111938476562	-2.523846435546875	0		-0.9539443359375	0.11063055419921874	0		-0.74305029296875	-2.650833740234375	0		1.44243115234375	-0.876564697265625	0		3.302650634765625	-0.4998311767578125	0		4.86720458984375	-0.3658873291015625	0		5.69685986328125	0.14809442138671874	0		-0.19689033508300782	5.88771728515625	0		
0.03535126113891601	-0.0011098740100860597	0		0.5019358825683594	-2.513356689453125	0		-0.9574861450195312	0.11074233245849609	0		-0.7486609497070312	-2.65270361328125	0		1.43887255859375	-0.8764938354492188	0		3.3063056640625	-0.48086965942382814	0		4.8705888671875	-0.3719510498046875	0		5.69332958984375	0.14909260559082033	0		-0.201322509765625	5.8888271484375	0		
0.03204829788208008	-0.0010268290042877196	0		0.5604114379882813	-2.528961181640625	0		-0.9698737182617188	0.10294552612304687	0		-0.7540421752929688	-2.65458203125	0		1.4325181884765625	-0.87940771484375	0		3.28986181640625	-0.49271334838867187	0		4.86034375	-0.36589483642578124	0		5.68511767578125	0.15710926818847656	0		-0.20449990844726562	5.8889150390625	0		
0.021015802383422853	1.3206100463867187E-4	0		0.49345025634765627	-2.5152021484375	0		-0.9769586791992187	0.09908609008789063	0		-0.7571530151367187	-2.654490966796875	0		1.42641943359375	-0.8823387451171875	0		3.2818935546875	-0.484669921875	0		4.864224609375	-0.37202178955078125	0		5.68289111328125	0.14002801513671875	0		-0.2073953857421875	5.8889921875	0		
0.02623013496398926	-8.961960077285767E-4	0		0.52951416015625	-2.523584228515625	0		-0.9706426391601563	0.10707469177246094	0		-0.7840343017578125	-2.65714501953125	0		1.435619384765625	-0.8824510498046875	0		3.28391845703125	-0.5017570190429688	0		4.8553193359375	-0.3830332946777344	0		5.684208984375	0.147882080078125	0		-0.20802409362792967	5.88703662109375	0		
0.027762592315673826	0.0021074049472808837	0		0.4760383911132812	-2.513989990234375	0		-0.9690958251953125	0.11110895538330078	0		-0.7336749267578125	-2.66265625	0		1.44699169921875	-0.8916004638671875	0		3.2837001953125	-0.47483322143554685	0		4.856060546875	-0.360168701171875	0		5.681712890625	0.14775559997558593	0		-0.19621151733398437	5.8989365234375	0		
0.02150092315673828	-8.117740154266358E-4	0		0.5416803588867187	-2.518719970703125	0		-0.971321044921875	0.1111773910522461	0		-0.7608550415039063	-2.650319580078125	0		1.4249013671875	-0.8763893432617188	0		3.249281005859375	-0.4905465087890625	0		4.84975390625	-0.3662428894042969	0		5.6745888671875	0.15666500854492188	0		-0.08011412048339844	5.910673828125	0		
-0.03344965362548828	8.013420104980469E-4	0		0.48367019653320314	-2.515090576171875	0		-0.9823704833984375	0.10333522796630859	0		-0.7289526977539063	-2.65464599609375	0		1.4198748779296875	-0.8793764038085937	0		3.277276123046875	-0.4929591064453125	0		4.8447109375	-0.37234121704101564	0		5.66854052734375	0.1485510559082031	0		-0.2501980285644531	5.88356787109375	0		
0.014791780471801758	-0.003739187955856323	0		0.5457295532226563	-2.528802978515625	0		-0.9840781860351563	0.1033813705444336	0		-0.7687468872070312	-2.654185302734375	0		1.415102294921875	-0.8823741455078125	0		3.260561279296875	-0.49188345336914063	0		4.84605419921875	-0.3665166931152344	0		5.67173388671875	0.1393277130126953	0		-0.21765469360351564	5.8892119140625	0		
0.008369850158691407	3.1911298632621767E-4	0		0.4922654113769531	-2.521237060546875	0		-0.9764530029296875	0.11131429290771484	0		-0.755341796875	-2.6583251953125	0		1.425607421875	-0.882548828125	0		3.263246337890625	-0.4770272521972656	0		4.844576171875	-0.36666424560546873	0		5.66536083984375	0.14720974731445313	0		-0.25300303649902345	5.8836015625	0		
0.015125585556030273	-7.781140208244323E-4	0		0.4929822998046875	-2.51928125	0		-0.977682373046875	0.11133493041992187	0		-0.791593017578125	-2.652919677734375	0		1.4214613037109376	-0.8725646362304688	0		3.26679833984375	-0.495183837890625	0		4.8433330078125	-0.3668116760253906	0		5.6731318359375	0.14693794250488282	0		-0.07162969207763673	5.92156298828125	0		
0.014114721298217774	-7.961099743843079E-4	0		0.5069511108398438	-2.515479736328125	0		-0.9786903686523437	0.11134225463867188	0		-0.7326641235351562	-2.65258984375	0		1.417383544921875	-0.8765845947265625	0		3.26994287109375	-0.48033056640625	0		4.84231298828125	-0.36695281982421873	0		5.66722607421875	0.15583111572265626	0		-0.0866119384765625	5.91070458984375	0		
0.013309904098510742	-8.231790065765381E-4	0		0.5050693969726563	-2.51750634765625	0		-0.9794927978515625	0.11133669281005859	0		-0.7695015869140625	-2.650196533203125	0		1.4135262451171875	-0.879608154296875	0		3.259049560546875	-0.48731536865234376	0		4.83843310546875	-0.37305038452148437	0		5.6623349609375	0.14772705078125	0		-0.1034000473022461	5.9008603515625	0		
0.012691996574401855	-8.58247995376587E-4	0		0.5044056701660157	-2.51755029296875	0		-0.9891980590820313	0.10342147827148437	0		-0.7372373657226563	-2.65658837890625	0		1.4098587646484375	-0.882634765625	0		3.2584228515625	-0.4874095458984375	0		4.83780810546875	-0.37317333984375	0		5.656619140625	0.1386459197998047	0		-0.2570920715332031	5.8855498046875	0		
0.009204937934875488	-0.0038659989833831785	0		0.4609041748046875	-2.518115234375	0		-0.980560302734375	0.11129354095458985	0		-0.7967174682617187	-2.65495361328125	0		1.4213907470703124	-0.8828336791992187	0		3.25379296875	-0.5024562072753906	0		4.82942822265625	-0.36620111083984375	0		5.66125732421875	0.14645875549316406	0		-0.22142160034179686	5.8881064453125	0		
0.02303604316711426	0.008928437232971192	0		0.5205616455078125	-2.51784521484375	0		-0.9768284912109375	0.11521526336669922	0		-0.7530157470703125	-2.650485595703125	0		1.4349613037109374	-0.8920576782226562	0		3.2748310546875	-0.4707875061035156	0		4.83317578125	-0.36036111450195313	0		5.66502392578125	0.15328701782226561	0		-0.20653038024902343	5.89889306640625	0		
-0.04126549530029297	6.012349724769593E-4	0		0.4794067077636719	-2.510439697265625	0		-0.9810760498046875	0.1112229995727539	0		-0.7692305297851563	-2.648345703125	0		1.4149163818359376	-0.876901611328125	0		3.242442138671875	-0.4865177307128906	0		4.8398876953125	-0.3675525207519531	0		5.66565234375	0.13815310668945313	0		-0.22375877380371093	5.8900380859375	0		
0.011597413063049317	-0.0010505859851837158	0		0.5311600952148438	-2.5190859375	0		-0.9811970825195313	0.11118177032470702	0		-0.7714075317382812	-2.65036669921875	0		1.4117496337890625	-0.8799378051757812	0		3.24231396484375	-0.4866101989746094	0		4.82877294921875	-0.3665400695800781	0		5.641634765625	0.14730203247070311	0		-0.08955823516845703	5.91147119140625	0		
-0.04944327163696289	0.0015839719772338867	0		0.4751009521484375	-2.51551416015625	0		-0.9853079833984375	0.10718316650390625	0		-0.7735282592773437	-2.652390625	0		1.408638427734375	-0.8829757690429687	0		3.2631376953125	-0.4959407958984375	0		4.83662158203125	-0.3737421875	0		5.65546630859375	0.13802262878417967	0		-0.22380810546875	5.8899345703125	0		
0.011495691299438476	-0.001164330005645752	0		0.5409080200195312	-2.52732470703125	0		-0.981296142578125	0.11109130096435547	0		-0.7606627197265625	-2.658586181640625	0		1.4146611328125	-0.8771185302734374	0		3.246359130859375	-0.4728459167480469	0		4.8186630859375	-0.36665347290039063	0		5.6505244140625	0.14595436096191405	0		-0.25685049438476565	5.88325390625	0		
-0.04150925827026367	3.7661299109458923E-4	0		0.4909739990234375	-2.516824951171875	0		-0.9772694091796875	0.11499771118164062	0		-0.7696010131835938	-2.648535400390625	0		1.414630615234375	-0.8771959228515624	0		3.26307177734375	-0.49613705444335937	0		4.8436943359375	-0.362056396484375	0		5.65541552734375	0.1377689208984375	0		-0.22372080993652343	5.889822265625	0		
0.011457388877868652	-0.0012865489721298217	0		0.5408063354492187	-2.527460205078125	0		-0.9813316650390626	0.1109939956665039	0		-0.769653564453125	-2.648587646484375	0		1.414600830078125	-0.8772760009765626	0		3.2552744140625	-0.4761513366699219	0		4.81861572265625	-0.3668963317871094	0		5.65050146484375	0.14669056701660158	0		-0.08941124725341797	5.911240234375	0		
-0.04155511856079101	2.521690130233765E-4	0		0.47689712524414063	-2.513804443359375	0		-0.981357421875	0.11094355010986329	0		-0.7357640380859375	-2.653027099609375	0		1.4084940185546875	-0.8832899169921875	0		3.257104248046875	-0.4882804870605469	0		4.83957080078125	-0.36826315307617186	0		5.66047509765625	0.14643757629394533	0		-0.2246007080078125	5.8907138671875	0		
0.0034000821113586424	-3.243510127067566E-4	0		0.5027726135253906	-2.518171630859375	0		-0.99048828125	0.10299543762207031	0		-0.7718181762695312	-2.650672119140625	0		1.408439697265625	-0.8833746337890624	0		3.236147705078125	-0.4801527099609375	0		4.82853564453125	-0.3672710266113281	0		5.646333984375	0.13745295715332032	0		-0.22357112121582032	5.889640625	0		
-0.041655117034912106	1.2275999784469604E-4	0		0.4866326293945312	-2.522062255859375	0		-0.9814542236328125	0.11084130096435547	0		-0.7589848022460938	-2.6568740234375	0		1.4114024658203126	-0.8804956665039062	0		3.271875	-0.49867556762695314	0		4.834369140625	-0.3764761352539063	0		5.65036865234375	0.14525741577148438	0		-0.25563104248046875	5.881943359375	0		
